# xmcd CD database file
#
# Track frame offsets:
#	150
#	15421
#	30891
#	68376
#	78700
#	103979
#	114437
#	123652
#	132169
#	157862
#
# Disc length: 2440 seconds
#
# Revision: 0
# Processed by: cddbd v1.5.2PL0 Copyright (c) Steve Scherf et al.
# Submitted via: CDex 1.51
#
DISCID=7109860a
DTITLE=Blacklevel Embassy - Baroc
DYEAR=2007
DGENRE=Rock
TTITLE0=Their Owns Stars
TTITLE1=Linedancing
TTITLE2=Settle Down John
TTITLE3=Setup
TTITLE4=So, We May Very Well Have Built This City On Rock N' Roll
TTITLE5=Pa:ri:ah
TTITLE6=Dallas F.B.I.
TTITLE7=770/179
TTITLE8=Woman, Here Is Your Son
TTITLE9=Closing Comment
EXTD=YEAR: 2007
EXTT0=
EXTT1=
EXTT2=
EXTT3=
EXTT4=
EXTT5=
EXTT6=
EXTT7=
EXTT8=
EXTT9=
PLAYORDER=
